name ./resultDataOpenSim/trcMotMarkerGrf/sub09/grf-15-03.mot
datacolumns 19
datarows 12
range 1.48000000 1.52400000
endheader

                time	     ground_force_vx	     ground_force_vy	     ground_force_vz	     ground_force_px	     ground_force_py	     ground_force_pz	   l_ground_force_vx	   l_ground_force_vy	   l_ground_force_vz	   l_ground_force_px	   l_ground_force_py	   l_ground_force_pz	     ground_torque_x	     ground_torque_y	     ground_torque_z	   l_ground_torque_x	   l_ground_torque_y	   l_ground_torque_z	
          1.48000000	        -14.49399599	        425.98878036	         -8.72300940	          1.03006146	          0.00000000	         -0.01102647	          0.00000000	          0.00000000	          0.00000000	          0.00000000	          0.00000000	          0.00000000	          0.00000000	          1.18789830	          0.00000000	          0.00000000	          0.00000000	          0.00000000	
          1.48400000	        -14.51983643	        421.97548798	         -7.60441110	          1.03065615	          0.00000000	         -0.01123239	          0.00000000	          0.00000000	          0.00000000	          0.00000000	          0.00000000	          0.00000000	          0.00000000	          1.29458525	          0.00000000	          0.00000000	          0.00000000	          0.00000000	
          1.48800000	        -15.04588606	        418.54199443	         -5.61449621	          1.03127573	          0.00000000	         -0.01149132	          0.00000000	          0.00000000	          0.00000000	          0.00000000	          0.00000000	          0.00000000	          0.00000000	          1.45800747	          0.00000000	          0.00000000	          0.00000000	          0.00000000	
          1.49200000	        -15.73864967	        415.62679265	         -3.09676337	          1.03188655	          0.00000000	         -0.01179180	          0.00000000	          0.00000000	          0.00000000	          0.00000000	          0.00000000	          0.00000000	          0.00000000	          1.65982931	          0.00000000	          0.00000000	          0.00000000	          0.00000000	
          1.49600000	        -16.22547582	        413.13383145	         -0.49026190	          1.03243914	          0.00000000	         -0.01211293	          0.00000000	          0.00000000	          0.00000000	          0.00000000	          0.00000000	          0.00000000	          0.00000000	          1.87430982	          0.00000000	          0.00000000	          0.00000000	          0.00000000	
          1.50000000	        -16.18618123	        410.94475644	          1.74962895	          1.03290180	          0.00000000	         -0.01242885	          0.00000000	          0.00000000	          0.00000000	          0.00000000	          0.00000000	          0.00000000	          0.00000000	          2.07283505	          0.00000000	          0.00000000	          0.00000000	          0.00000000	
          1.50400000	        -15.44729525	        408.94062190	          3.24263132	          1.03324730	          0.00000000	         -0.01270818	          0.00000000	          0.00000000	          0.00000000	          0.00000000	          0.00000000	          0.00000000	          0.00000000	          2.22968707	          0.00000000	          0.00000000	          0.00000000	          0.00000000	
          1.50800000	        -14.03353372	        407.02378427	          3.75736814	          1.03349851	          0.00000000	         -0.01294784	          0.00000000	          0.00000000	          0.00000000	          0.00000000	          0.00000000	          0.00000000	          0.00000000	          2.32738715	          0.00000000	          0.00000000	          0.00000000	          0.00000000	
          1.51200000	        -12.14827227	        405.13772265	          3.24893233	          1.03370151	          0.00000000	         -0.01314443	          0.00000000	          0.00000000	          0.00000000	          0.00000000	          0.00000000	          0.00000000	          0.00000000	          2.35999218	          0.00000000	          0.00000000	          0.00000000	          0.00000000	
          1.51600000	        -10.09871390	        403.29023336	          1.86043073	          1.03389621	          0.00000000	         -0.01329548	          0.00000000	          0.00000000	          0.00000000	          0.00000000	          0.00000000	          0.00000000	          0.00000000	          2.33364978	          0.00000000	          0.00000000	          0.00000000	          0.00000000	
          1.52000000	         -8.20286291	        401.56760776	         -0.11597020	          1.03413890	          0.00000000	         -0.01341961	          0.00000000	          0.00000000	          0.00000000	          0.00000000	          0.00000000	          0.00000000	          0.00000000	          2.26477489	          0.00000000	          0.00000000	          0.00000000	          0.00000000	
          1.52400000	         -6.70734698	        400.11517843	         -2.31028301	          1.03444424	          0.00000000	         -0.01354139	          0.00000000	          0.00000000	          0.00000000	          0.00000000	          0.00000000	          0.00000000	          0.00000000	          2.17674006	          0.00000000	          0.00000000	          0.00000000	          0.00000000	
